# xmcd
#
# Track frame offsets:
#	150
#	14348
#	23986
#	38826
#	54423
#	70149
#	82349
#	98443
#	113872
#	126925
#	141213
#	156729
#	169692
#	185291
#	198816
#	210996
#	226983
#	238665
#
# Disc length: 3388 seconds
#
# Revision: 0
# Processed by: cddbd v1.5.2PL0 Copyright (c) Steve Scherf et al.
# Submitted via: EasyCDDAExtractor 16.0.6.1
#
DISCID=f20d3a12
DTITLE=Συλλογικός δίσκος - Τραγούδια 45 στροφές-Μπιθικώτσης Γρηγόρης 2
DYEAR=1997
DGENRE=Λαϊκή
TTITLE0=Μπιθικώτσης Γρηγόρης - Κουπιά θα ρίξω στο γιαλό [Ζαχ. Δαλέζιου-Ν. Δαλέ
TTITLE0=ζιου]
TTITLE1=Μπιθικώτσης Γρηγόρης - Ο ζητιάνος [Γρηγόρη Μπιθικώτση]
TTITLE2=Μπιθικώτσης Γρηγόρης-Φυτούση Ζωή - Κοσμοναύτισα [Απ. Καλδάρα-Ε. Σούλη]
TTITLE3=Μπιθικώτσης Γρηγόρης-Θύμη Καίτη - Τώρα μαζί και αύριο χώρια [Θ. Μπιθικ
TTITLE3=ώτση-Π.Ιγγλέση]
TTITLE4=Μπιθικώτσης Γρηγόρης-Δούκισσα - Για μένα είσαι θησαυρός [Γ. Μουφλουζέλ
TTITLE4=η]
TTITLE5=Μπιθικώτσης Γρηγόρης - Όλα για τη γυναίκα [Νίκου Δαλέζιου]
TTITLE6=Μπιθικώτσης Γρηγόρης-Χρηστάκης - Μάννα [Μ. Θεοδωράκη-Κ. Βίρβου]
TTITLE7=Μπιθικώτσης Γρηγόρης-Θύμη Κ.-Ζίνια Λ. - Ήθελα νά 'μουνα πουλάκι [Γρ. Μ
TTITLE7=πιθικώτση]
TTITLE8=Μπιθικώτσης Γρηγόρης-Γκίκα Βούλα - Αν θέλεις να χωρίσουμε [Γρ.Μπιθικώτ
TTITLE8=ση-Χρ.Κολοκοτρώνη]
TTITLE9=Μπιθικώτσης Γρηγόρης-Χρηστάκης - Ο Πειραιάς, ο Πειραιάς [Θ. Σοφού]
TTITLE10=Μπιθικώτσης Γρηγόρης-Καλδάρας Απόστολος - Έκτακτο παράρτημα [Απ. Καλδ
TTITLE10=άρα-Κ. Βίρβου]
TTITLE11=Μπιθικώτσης Γρηγόρης - Το ποτάμι [Απ. Καλδάρα]
TTITLE12=Μπιθικώτσης Γρηγόρης-Γκίκα Βούλα - Το ξυπνητήρι [Γρ. Μπιθικώτση-Χρ. Κ
TTITLE12=ολοκοτρώνη]
TTITLE13=Μπιθικώτσης Γρηγόρης - Εμένα γλώσσα μη μού βγάζεις [Νίκου Δαλέζιου]
TTITLE14=Μπιθικώτσης Γρηγόρης-Γκίκα Βούλα - Η Λενιώ η κουτσομπόλα [Μιχ. Γενίτσ
TTITLE14=αρη]
TTITLE15=Μπιθικώτσης Γρηγόρης-Γκίκα Βούλα - Ο Βοτανικός [Θ. Σοφού]
TTITLE16=Μπιθικώτσης Γρηγόρης - Στον γαλανό τον ουρανό [Κ. Παπαδόπουλου-Λ. Καρ
TTITLE16=νέζη]
TTITLE17=Μπιθικώτσης Γρηγόρης-Μευσούτης Λ. - Στ' αληθινά Μαριώ μου [Γρ. Μπιθικ
TTITLE17=ώτση-Λ. Μευσούτη]
EXTD=
EXTT0=
EXTT1=
EXTT2=
EXTT3=
EXTT4=
EXTT5=
EXTT6=
EXTT7=
EXTT8=
EXTT9=
EXTT10=
EXTT11=
EXTT12=
EXTT13=
EXTT14=
EXTT15=
EXTT16=
EXTT17=
PLAYORDER=
